<?xml version="1.0" standalone="no"?>
<!DOCTYPE svg PUBLIC "-//W3C//DTD SVG 20010904//EN"
 "http://www.w3.org/TR/2001/REC-SVG-20010904/DTD/svg10.dtd">
<svg version="1.0" xmlns="http://www.w3.org/2000/svg"
 width="200.000000pt" height="200.000000pt" viewBox="0 0 200.000000 200.000000"
 preserveAspectRatio="xMidYMid meet">

<g transform="translate(0.000000,200.000000) scale(0.100000,-0.100000)"
fill="#000000" stroke="none">
<path d="M820 1665 l0 -45 -85 0 -85 0 0 -45 0 -45 -45 0 -45 0 0 -45 0 -45
-45 0 -45 0 0 -45 0 -45 -45 0 -45 0 0 -85 0 -85 -45 0 -45 0 0 -175 0 -175
45 0 45 0 0 -90 0 -90 45 0 45 0 0 -45 0 -45 45 0 45 0 0 -45 0 -45 45 0 45 0
0 -45 0 -45 85 0 85 0 0 -45 0 -45 175 0 175 0 0 45 0 45 90 0 90 0 0 45 0 45
45 0 45 0 0 45 0 45 45 0 45 0 0 45 0 45 45 0 45 0 0 90 0 90 45 0 45 0 0 175
0 175 -45 0 -45 0 0 85 0 85 -45 0 -45 0 0 45 0 45 -45 0 -45 0 0 45 0 45 -45
0 -45 0 0 45 0 45 -90 0 -90 0 0 45 0 45 -175 0 -175 0 0 -45z m350 -90 l0
-45 -85 0 -85 0 0 -45 0 -45 -45 0 -45 0 0 -90 0 -90 -45 0 -45 0 0 -85 0 -85
45 0 45 0 0 45 0 45 90 0 90 0 0 45 0 45 175 0 175 0 0 40 0 40 -45 0 -45 0 0
45 0 45 -85 0 -85 0 0 45 0 45 85 0 85 0 0 -45 0 -45 45 0 45 0 0 -45 0 -45
45 0 45 0 0 -90 0 -90 45 0 45 0 0 -170 0 -170 -45 0 -45 0 0 85 0 85 -45 0
-45 0 0 45 0 45 -90 0 -90 0 0 45 0 45 -85 0 -85 0 0 -45 0 -45 45 0 45 0 0
-90 0 -90 45 0 45 0 0 -175 0 -175 40 0 40 0 0 45 0 45 45 0 45 0 0 85 0 85
45 0 45 0 0 -85 0 -85 -45 0 -45 0 0 -45 0 -45 -45 0 -45 0 0 -45 0 -45 -90 0
-90 0 0 -45 0 -45 -170 0 -170 0 0 45 0 45 85 0 85 0 0 45 0 45 45 0 45 0 0
90 0 90 45 0 45 0 0 85 0 85 -45 0 -45 0 0 -45 0 -45 -90 0 -90 0 0 -45 0 -45
-175 0 -175 0 0 -40 0 -40 45 0 45 0 0 -45 0 -45 85 0 85 0 0 -45 0 -45 -85 0
-85 0 0 45 0 45 -45 0 -45 0 0 45 0 45 -45 0 -45 0 0 90 0 90 -45 0 -45 0 0
170 0 170 45 0 45 0 0 90 0 90 45 0 45 0 0 45 0 45 45 0 45 0 0 45 0 45 90 0
90 0 0 45 0 45 170 0 170 0 0 -45z"/>
<path d="M650 1395 l0 -45 -45 0 -45 0 0 -90 0 -90 -45 0 -45 0 0 -85 0 -85
45 0 45 0 0 -39 c0 -35 3 -39 31 -45 17 -3 58 -6 90 -6 l59 0 0 -39 c0 -35 3
-39 31 -45 17 -3 56 -6 85 -6 l54 0 0 45 0 45 -45 0 -45 0 0 90 0 90 -45 0
-45 0 0 175 0 175 -40 0 -40 0 0 -45z"/>
</g>
</svg>
